<?xml version="1.0"?>
<!-- Generated by SVGo and Plotinum VG -->
<svg width="11.111in" height="8.3333in"
	xmlns="http://www.w3.org/2000/svg" 
	xmlns:xlink="http://www.w3.org/1999/xlink">
<g transform="scale(1, -1) translate(0, -750)">
<path d="M0,0L1000,0L1000,750L0,750Z" style="fill:#FFFFFF" />
<text x="308.18" y="-737.28" transform="scale(1, -1)"
	style="font-family:Times;font-weight:normal;font-style:normal;font-size:12pt">Effective memory usage of archive/tar for 50 files (20MB each)</text>
<text x="435.5" y="-5.355" transform="scale(1, -1)"
	style="font-family:Times;font-weight:normal;font-style:normal;font-size:12pt">Number of 20MB files in archive</text>
<text x="68.25" y="-19.025" transform="scale(1, -1)"
	style="font-family:Times;font-weight:normal;font-style:normal;font-size:10pt">0</text>
<text x="254.64" y="-19.025" transform="scale(1, -1)"
	style="font-family:Times;font-weight:normal;font-style:normal;font-size:10pt">10</text>
<text x="444.16" y="-19.025" transform="scale(1, -1)"
	style="font-family:Times;font-weight:normal;font-style:normal;font-size:10pt">20</text>
<text x="633.67" y="-19.025" transform="scale(1, -1)"
	style="font-family:Times;font-weight:normal;font-style:normal;font-size:10pt">30</text>
<text x="823.19" y="-19.025" transform="scale(1, -1)"
	style="font-family:Times;font-weight:normal;font-style:normal;font-size:10pt">40</text>
<path d="M71.375,29.625L71.375,39.625" style="fill:none;stroke:#000000;stroke-width:0.625" />
<path d="M260.89,29.625L260.89,39.625" style="fill:none;stroke:#000000;stroke-width:0.625" />
<path d="M450.41,29.625L450.41,39.625" style="fill:none;stroke:#000000;stroke-width:0.625" />
<path d="M639.92,29.625L639.92,39.625" style="fill:none;stroke:#000000;stroke-width:0.625" />
<path d="M829.44,29.625L829.44,39.625" style="fill:none;stroke:#000000;stroke-width:0.625" />
<path d="M166.13,34.625L166.13,39.625" style="fill:none;stroke:#000000;stroke-width:0.625" />
<path d="M355.65,34.625L355.65,39.625" style="fill:none;stroke:#000000;stroke-width:0.625" />
<path d="M545.16,34.625L545.16,39.625" style="fill:none;stroke:#000000;stroke-width:0.625" />
<path d="M734.68,34.625L734.68,39.625" style="fill:none;stroke:#000000;stroke-width:0.625" />
<path d="M924.19,34.625L924.19,39.625" style="fill:none;stroke:#000000;stroke-width:0.625" />
<path d="M71.375,39.625L1000,39.625" style="fill:none;stroke:#000000;stroke-width:0.625" />
<g transform="rotate(90)">
<text x="344.27" y="12.72" transform="scale(1, -1)"
	style="font-family:Times;font-weight:normal;font-style:normal;font-size:12pt">Memory usage</text>
</g>
<text x="18.075" y="-210.75" transform="scale(1, -1)"
	style="font-family:Times;font-weight:normal;font-style:normal;font-size:10pt">2.0GB</text>
<text x="18.075" y="-383.76" transform="scale(1, -1)"
	style="font-family:Times;font-weight:normal;font-style:normal;font-size:10pt">3.0GB</text>
<text x="18.075" y="-556.77" transform="scale(1, -1)"
	style="font-family:Times;font-weight:normal;font-style:normal;font-size:10pt">4.0GB</text>
<text x="18.075" y="-124.25" transform="scale(1, -1)"
	style="font-family:Times;font-weight:normal;font-style:normal;font-size:10pt">1.5GB</text>
<text x="18.075" y="-297.26" transform="scale(1, -1)"
	style="font-family:Times;font-weight:normal;font-style:normal;font-size:10pt">2.5GB</text>
<text x="18.075" y="-470.26" transform="scale(1, -1)"
	style="font-family:Times;font-weight:normal;font-style:normal;font-size:10pt">3.5GB</text>
<text x="18.075" y="-643.27" transform="scale(1, -1)"
	style="font-family:Times;font-weight:normal;font-style:normal;font-size:10pt">4.5GB</text>
<path d="M54.188,215.58L64.188,215.58" style="fill:none;stroke:#000000;stroke-width:0.625" />
<path d="M54.188,388.59L64.188,388.59" style="fill:none;stroke:#000000;stroke-width:0.625" />
<path d="M54.188,561.59L64.188,561.59" style="fill:none;stroke:#000000;stroke-width:0.625" />
<path d="M54.188,129.08L64.188,129.08" style="fill:none;stroke:#000000;stroke-width:0.625" />
<path d="M54.188,302.08L64.188,302.08" style="fill:none;stroke:#000000;stroke-width:0.625" />
<path d="M54.188,475.09L64.188,475.09" style="fill:none;stroke:#000000;stroke-width:0.625" />
<path d="M54.188,648.1L64.188,648.1" style="fill:none;stroke:#000000;stroke-width:0.625" />
<path d="M64.188,46.188L64.188,731.93" style="fill:none;stroke:#000000;stroke-width:0.625" />
<path d="M71.375,46.188L71.375,731.93" style="fill:none;stroke:#808080;stroke-width:0.3125" />
<path d="M260.89,46.188L260.89,731.93" style="fill:none;stroke:#808080;stroke-width:0.3125" />
<path d="M450.41,46.188L450.41,731.93" style="fill:none;stroke:#808080;stroke-width:0.3125" />
<path d="M639.92,46.188L639.92,731.93" style="fill:none;stroke:#808080;stroke-width:0.3125" />
<path d="M829.44,46.188L829.44,731.93" style="fill:none;stroke:#808080;stroke-width:0.3125" />
<path d="M71.375,215.58L1000,215.58" style="fill:none;stroke:#808080;stroke-width:0.3125" />
<path d="M71.375,388.59L1000,388.59" style="fill:none;stroke:#808080;stroke-width:0.3125" />
<path d="M71.375,561.59L1000,561.59" style="fill:none;stroke:#808080;stroke-width:0.3125" />
<path d="M71.375,129.08L1000,129.08" style="fill:none;stroke:#808080;stroke-width:0.3125" />
<path d="M71.375,302.08L1000,302.08" style="fill:none;stroke:#808080;stroke-width:0.3125" />
<path d="M71.375,475.09L1000,475.09" style="fill:none;stroke:#808080;stroke-width:0.3125" />
<path d="M71.375,648.1L1000,648.1" style="fill:none;stroke:#808080;stroke-width:0.3125" />
<path d="M71.375,46.188L90.327,53.11L109.28,70.412L128.23,70.412L147.18,70.412L166.13,108.48L185.08,108.48L204.04,108.48L222.99,108.48L241.94,108.48L260.89,108.48L279.84,177.68L298.79,177.68L317.74,177.68L336.7,177.68L355.65,177.68L374.6,177.68L393.55,177.68L412.5,177.68L431.45,177.68L450.41,177.68L469.36,177.68L488.31,177.68L507.26,340.32L526.21,340.32L545.16,340.32L564.11,340.32L583.07,340.32L602.02,340.32L620.97,340.32L639.92,340.32L658.87,340.32L677.82,340.32L696.78,340.32L715.73,340.32L734.68,340.32L753.63,340.32L772.58,340.32L791.53,340.32L810.48,340.32L829.44,340.32L848.39,340.32L867.34,340.32L886.29,340.32L905.24,340.32L924.19,340.32L943.15,340.32L962.1,613.68L981.05,613.68L1000,613.68" style="fill:none;stroke:#EE2E2F;stroke-width:0.625" />
<path d="M71.375,46.69L90.327,53.629L109.28,70.931L128.23,70.931L147.18,70.931L166.13,109L185.08,109L204.04,109L222.99,109L241.94,109L260.89,109L279.84,188.6L298.79,188.6L317.74,188.6L336.7,188.6L355.65,188.6L374.6,188.6L393.55,188.6L412.5,188.6L431.45,188.6L450.41,188.6L469.36,188.6L488.31,188.6L507.26,351.23L526.21,351.23L545.16,351.23L564.11,351.23L583.07,351.23L602.02,351.23L620.97,351.23L639.92,351.23L658.87,351.23L677.82,351.23L696.78,351.23L715.73,351.23L734.68,351.23L753.63,351.23L772.58,351.23L791.53,351.23L810.48,351.23L829.44,351.23L848.39,351.23L867.34,351.23L886.29,351.23L905.24,351.23L924.19,351.23L943.15,351.23L962.1,679.97L981.05,679.97L1000,679.97" style="fill:none;stroke:#008C48;stroke-width:0.625" />
<path d="M71.375,58.443L90.327,65.823L109.28,84.223L128.23,84.223L147.18,84.223L166.13,124.71L185.08,124.71L204.04,124.71L222.99,124.71L241.94,124.71L260.89,124.71L279.84,209.36L298.79,209.36L317.74,209.36L336.7,209.36L355.65,209.36L374.6,209.36L393.55,209.36L412.5,209.36L431.45,209.36L450.41,209.36L469.36,209.36L488.31,209.36L507.26,382.32L526.21,382.32L545.16,382.32L564.11,382.32L583.07,382.32L602.02,382.32L620.97,382.32L639.92,382.32L658.87,382.32L677.82,382.32L696.78,382.32L715.73,382.32L734.68,382.32L753.63,382.32L772.58,382.32L791.53,382.32L810.48,382.32L829.44,382.32L848.39,382.32L867.34,382.32L886.29,382.32L905.24,382.32L924.19,382.32L943.15,382.32L962.1,731.93L981.05,731.93L1000,731.93" style="fill:none;stroke:#185AA9;stroke-width:0.625" />
<path d="M71.375,58.443L90.327,65.823L109.28,84.223L128.23,84.223L147.18,84.223L166.13,124.71L185.08,124.71L204.04,124.71L222.99,124.71L241.94,124.71L260.89,124.71L279.84,209.36L298.79,209.36L317.74,209.36L336.7,209.36L355.65,209.36L374.6,209.36L393.55,209.36L412.5,209.36L431.45,209.36L450.41,209.36L469.36,209.36L488.31,209.36L507.26,382.32L526.21,382.32L545.16,382.32L564.11,382.32L583.07,382.32L602.02,382.32L620.97,382.32L639.92,382.32L658.87,382.32L677.82,382.32L696.78,382.32L715.73,382.32L734.68,382.32L753.63,382.32L772.58,382.32L791.53,382.32L810.48,382.32L829.44,382.32L848.39,382.32L867.34,382.32L886.29,382.32L905.24,382.32L924.19,382.32L943.15,382.32L962.1,731.93L981.05,731.93L1000,731.93" style="fill:none;stroke:#F47D23;stroke-width:0.625" />
<path d="M975,94.698L1000,94.698" style="fill:none;stroke:#EE2E2F;stroke-width:0.625" />
<text x="869.63" y="-88.908" transform="scale(1, -1)"
	style="font-family:Times;font-weight:normal;font-style:normal;font-size:12pt">current heap size</text>
<path d="M975,80.838L1000,80.838" style="fill:none;stroke:#008C48;stroke-width:0.625" />
<text x="885.43" y="-75.047" transform="scale(1, -1)"
	style="font-family:Times;font-weight:normal;font-style:normal;font-size:12pt">total heap size</text>
<path d="M975,66.977L1000,66.977" style="fill:none;stroke:#185AA9;stroke-width:0.625" />
<text x="807.52" y="-61.187" transform="scale(1, -1)"
	style="font-family:Times;font-weight:normal;font-style:normal;font-size:12pt">memory allocated from OS</text>
<path d="M975,53.117L1000,53.117" style="fill:none;stroke:#F47D23;stroke-width:0.625" />
<text x="690.88" y="-47.327" transform="scale(1, -1)"
	style="font-family:Times;font-weight:normal;font-style:normal;font-size:12pt">effective memory consumption of the program</text>
</g>
</svg>
