<?xml version="1.0"?>
<!-- Generated by SVGo and Plotinum VG -->
<svg width="11.111in" height="8.3333in"
	xmlns="http://www.w3.org/2000/svg" 
	xmlns:xlink="http://www.w3.org/1999/xlink">
<g transform="scale(1, -1) translate(0, -750)">
<path d="M0,0L1000,0L1000,750L0,750Z" style="fill:#FFFFFF" />
<text x="304.43" y="-737.28" transform="scale(1, -1)"
	style="font-family:Times;font-weight:normal;font-style:normal;font-size:12pt">Effective memory usage of archive/tar for 100 files (10MB each)</text>
<text x="435.5" y="-5.355" transform="scale(1, -1)"
	style="font-family:Times;font-weight:normal;font-style:normal;font-size:12pt">Number of 10MB files in archive</text>
<text x="68.25" y="-19.025" transform="scale(1, -1)"
	style="font-family:Times;font-weight:normal;font-style:normal;font-size:10pt">0</text>
<text x="346.53" y="-19.025" transform="scale(1, -1)"
	style="font-family:Times;font-weight:normal;font-style:normal;font-size:10pt">30</text>
<text x="627.93" y="-19.025" transform="scale(1, -1)"
	style="font-family:Times;font-weight:normal;font-style:normal;font-size:10pt">60</text>
<text x="909.33" y="-19.025" transform="scale(1, -1)"
	style="font-family:Times;font-weight:normal;font-style:normal;font-size:10pt">90</text>
<path d="M71.375,29.625L71.375,39.625" style="fill:none;stroke:#000000;stroke-width:0.625" />
<path d="M352.78,29.625L352.78,39.625" style="fill:none;stroke:#000000;stroke-width:0.625" />
<path d="M634.18,29.625L634.18,39.625" style="fill:none;stroke:#000000;stroke-width:0.625" />
<path d="M915.58,29.625L915.58,39.625" style="fill:none;stroke:#000000;stroke-width:0.625" />
<path d="M165.18,34.625L165.18,39.625" style="fill:none;stroke:#000000;stroke-width:0.625" />
<path d="M258.98,34.625L258.98,39.625" style="fill:none;stroke:#000000;stroke-width:0.625" />
<path d="M446.58,34.625L446.58,39.625" style="fill:none;stroke:#000000;stroke-width:0.625" />
<path d="M540.38,34.625L540.38,39.625" style="fill:none;stroke:#000000;stroke-width:0.625" />
<path d="M727.98,34.625L727.98,39.625" style="fill:none;stroke:#000000;stroke-width:0.625" />
<path d="M821.78,34.625L821.78,39.625" style="fill:none;stroke:#000000;stroke-width:0.625" />
<path d="M71.375,39.625L1000,39.625" style="fill:none;stroke:#000000;stroke-width:0.625" />
<g transform="rotate(90)">
<text x="344.27" y="12.72" transform="scale(1, -1)"
	style="font-family:Times;font-weight:normal;font-style:normal;font-size:12pt">Memory usage</text>
</g>
<text x="18.075" y="-215.33" transform="scale(1, -1)"
	style="font-family:Times;font-weight:normal;font-style:normal;font-size:10pt">2.0GB</text>
<text x="18.075" y="-391.3" transform="scale(1, -1)"
	style="font-family:Times;font-weight:normal;font-style:normal;font-size:10pt">3.0GB</text>
<text x="18.075" y="-567.27" transform="scale(1, -1)"
	style="font-family:Times;font-weight:normal;font-style:normal;font-size:10pt">4.0GB</text>
<text x="18.075" y="-127.35" transform="scale(1, -1)"
	style="font-family:Times;font-weight:normal;font-style:normal;font-size:10pt">1.5GB</text>
<text x="18.075" y="-303.32" transform="scale(1, -1)"
	style="font-family:Times;font-weight:normal;font-style:normal;font-size:10pt">2.5GB</text>
<text x="18.075" y="-479.29" transform="scale(1, -1)"
	style="font-family:Times;font-weight:normal;font-style:normal;font-size:10pt">3.5GB</text>
<text x="18.075" y="-655.26" transform="scale(1, -1)"
	style="font-family:Times;font-weight:normal;font-style:normal;font-size:10pt">4.5GB</text>
<path d="M54.188,220.16L64.188,220.16" style="fill:none;stroke:#000000;stroke-width:0.625" />
<path d="M54.188,396.13L64.188,396.13" style="fill:none;stroke:#000000;stroke-width:0.625" />
<path d="M54.188,572.1L64.188,572.1" style="fill:none;stroke:#000000;stroke-width:0.625" />
<path d="M54.188,132.17L64.188,132.17" style="fill:none;stroke:#000000;stroke-width:0.625" />
<path d="M54.188,308.14L64.188,308.14" style="fill:none;stroke:#000000;stroke-width:0.625" />
<path d="M54.188,484.11L64.188,484.11" style="fill:none;stroke:#000000;stroke-width:0.625" />
<path d="M54.188,660.08L64.188,660.08" style="fill:none;stroke:#000000;stroke-width:0.625" />
<path d="M64.188,46.188L64.188,731.93" style="fill:none;stroke:#000000;stroke-width:0.625" />
<path d="M71.375,46.188L71.375,731.93" style="fill:none;stroke:#808080;stroke-width:0.3125" />
<path d="M352.78,46.188L352.78,731.93" style="fill:none;stroke:#808080;stroke-width:0.3125" />
<path d="M634.18,46.188L634.18,731.93" style="fill:none;stroke:#808080;stroke-width:0.3125" />
<path d="M915.58,46.188L915.58,731.93" style="fill:none;stroke:#808080;stroke-width:0.3125" />
<path d="M71.375,220.16L1000,220.16" style="fill:none;stroke:#808080;stroke-width:0.3125" />
<path d="M71.375,396.13L1000,396.13" style="fill:none;stroke:#808080;stroke-width:0.3125" />
<path d="M71.375,572.1L1000,572.1" style="fill:none;stroke:#808080;stroke-width:0.3125" />
<path d="M71.375,132.17L1000,132.17" style="fill:none;stroke:#808080;stroke-width:0.3125" />
<path d="M71.375,308.14L1000,308.14" style="fill:none;stroke:#808080;stroke-width:0.3125" />
<path d="M71.375,484.11L1000,484.11" style="fill:none;stroke:#808080;stroke-width:0.3125" />
<path d="M71.375,660.08L1000,660.08" style="fill:none;stroke:#808080;stroke-width:0.3125" />
<path d="M71.375,46.188L80.755,49.708L90.135,58.509L99.515,58.509L108.9,58.509L118.28,77.868L127.66,77.868L137.04,77.868L146.42,77.868L155.8,77.868L165.18,77.869L174.56,116.59L183.94,116.59L193.32,116.59L202.7,116.59L212.08,116.59L221.46,116.59L230.84,116.59L240.22,116.59L249.6,116.59L258.98,116.59L268.36,116.59L277.74,181.7L287.12,181.7L296.5,181.7L305.88,181.7L315.26,181.7L324.64,181.7L334.02,181.7L343.4,181.7L352.78,181.7L362.16,181.7L371.54,181.7L380.92,181.7L390.3,181.7L399.68,181.7L409.06,181.7L418.44,181.7L427.82,181.7L437.2,181.7L446.58,181.7L455.96,181.7L465.34,181.7L474.72,181.7L484.1,181.7L493.48,341.85L502.86,341.85L512.24,341.85L521.62,341.85L531,341.85L540.38,341.85L549.76,341.85L559.14,341.85L568.52,341.85L577.9,341.85L587.28,341.85L596.66,341.85L606.04,341.85L615.42,341.85L624.8,341.85L634.18,341.85L643.56,341.85L652.94,341.85L662.32,341.85L671.7,341.85L681.08,341.85L690.46,341.85L699.84,341.85L709.22,341.85L718.6,322.49L727.98,322.49L737.36,322.49L746.74,322.49L756.12,322.49L765.5,322.49L774.88,322.49L784.26,283.77L793.64,283.77L803.02,283.77L812.4,283.77L821.78,283.78L831.16,283.78L840.54,283.78L849.92,283.78L859.3,283.78L868.68,283.78L878.06,283.78L887.44,283.78L896.82,283.78L906.2,283.78L915.58,283.78L924.96,605.83L934.34,605.83L943.72,605.83L953.1,605.83L962.48,605.83L971.86,605.83L981.24,605.83L990.62,605.83L1000,605.83" style="fill:none;stroke:#EE2E2F;stroke-width:0.625" />
<path d="M71.375,47.963L80.755,51.492L90.135,60.303L99.515,60.303L108.9,60.303L118.28,79.677L127.66,79.677L137.04,79.677L146.42,79.677L155.8,79.677L165.18,79.677L174.56,118.4L183.94,118.4L193.32,118.4L202.7,118.4L212.08,118.4L221.46,118.4L230.84,118.4L240.22,118.4L249.6,118.4L258.98,118.4L268.36,118.4L277.74,197.61L287.12,197.61L296.5,197.61L305.88,197.61L315.26,197.61L324.64,197.61L334.02,197.61L343.4,197.61L352.78,197.61L362.16,197.61L371.54,197.61L380.92,197.61L390.3,197.61L399.68,197.61L409.06,197.61L418.44,197.61L427.82,197.61L437.2,197.61L446.58,197.61L455.96,197.61L465.34,197.61L474.72,197.61L484.1,197.61L493.48,357.77L502.86,357.77L512.24,357.77L521.62,357.77L531,357.77L540.38,357.77L549.76,357.77L559.14,357.77L568.52,357.77L577.9,357.77L587.28,357.77L596.66,357.77L606.04,357.77L615.42,357.77L624.8,357.77L634.18,357.77L643.56,357.77L652.94,357.77L662.32,357.77L671.7,357.77L681.08,357.77L690.46,357.77L699.84,357.77L709.22,357.77L718.6,357.77L727.98,357.77L737.36,357.77L746.74,357.77L756.12,357.77L765.5,357.77L774.88,357.77L784.26,357.77L793.64,357.77L803.02,357.77L812.4,357.77L821.78,357.77L831.16,357.77L840.54,357.77L849.92,357.77L859.3,357.77L868.68,357.77L878.06,357.77L887.44,357.77L896.82,357.77L906.2,357.77L915.58,357.77L924.96,679.84L934.34,679.84L943.72,679.84L953.1,679.84L962.48,679.84L971.86,679.84L981.24,679.84L990.62,679.84L1000,679.84" style="fill:none;stroke:#008C48;stroke-width:0.625" />
<path d="M71.375,59.938L80.755,63.691L90.135,73.061L99.515,73.061L108.9,73.061L118.28,93.665L127.66,93.665L137.04,93.665L146.42,93.665L155.8,93.665L165.18,93.665L174.56,134.85L183.94,134.85L193.32,134.85L202.7,134.85L212.08,134.85L221.46,134.85L230.84,134.85L240.22,134.85L249.6,134.85L258.98,134.85L268.36,134.85L277.74,219.08L287.12,219.08L296.5,219.08L305.88,219.08L315.26,219.08L324.64,219.08L334.02,219.08L343.4,219.08L352.78,219.08L362.16,219.08L371.54,219.08L380.92,219.08L390.3,219.08L399.68,219.08L409.06,219.08L418.44,219.08L427.82,219.08L437.2,219.08L446.58,219.08L455.96,219.08L465.34,219.08L474.72,219.08L484.1,219.08L493.48,389.41L502.86,389.41L512.24,389.41L521.62,389.41L531,389.41L540.38,389.41L549.76,389.41L559.14,389.41L568.52,389.41L577.9,389.41L587.28,389.41L596.66,389.41L606.04,389.41L615.42,389.41L624.8,389.41L634.18,389.41L643.56,389.41L652.94,389.41L662.32,389.41L671.7,389.41L681.08,389.41L690.46,389.41L699.84,389.41L709.22,389.41L718.6,389.41L727.98,389.41L737.36,389.41L746.74,389.41L756.12,389.41L765.5,389.41L774.88,389.41L784.26,389.41L793.64,389.41L803.02,389.41L812.4,389.41L821.78,389.41L831.16,389.41L840.54,389.41L849.92,389.41L859.3,389.41L868.68,389.41L878.06,389.41L887.44,389.41L896.82,389.41L906.2,389.41L915.58,389.41L924.96,731.93L934.34,731.93L943.72,731.93L953.1,731.93L962.48,731.93L971.86,731.93L981.24,731.93L990.62,731.93L1000,731.93" style="fill:none;stroke:#185AA9;stroke-width:0.625" />
<path d="M71.375,59.938L80.755,63.691L90.135,73.061L99.515,73.061L108.9,73.061L118.28,93.665L127.66,93.665L137.04,93.665L146.42,93.665L155.8,93.665L165.18,93.665L174.56,134.85L183.94,134.85L193.32,134.85L202.7,134.85L212.08,134.85L221.46,134.85L230.84,134.85L240.22,134.85L249.6,134.85L258.98,134.85L268.36,134.85L277.74,219.08L287.12,219.08L296.5,219.08L305.88,219.08L315.26,219.08L324.64,219.08L334.02,219.08L343.4,219.08L352.78,219.08L362.16,219.08L371.54,219.08L380.92,219.08L390.3,219.08L399.68,219.08L409.06,219.08L418.44,219.08L427.82,219.08L437.2,219.08L446.58,219.08L455.96,219.08L465.34,219.08L474.72,219.08L484.1,219.08L493.48,389.41L502.86,389.41L512.24,389.41L521.62,389.41L531,389.41L540.38,389.41L549.76,389.41L559.14,389.41L568.52,389.41L577.9,389.41L587.28,389.41L596.66,389.41L606.04,389.41L615.42,389.41L624.8,389.41L634.18,389.41L643.56,389.41L652.94,389.41L662.32,389.41L671.7,389.41L681.08,389.41L690.46,389.41L699.84,389.41L709.22,389.41L718.6,389.41L727.98,389.41L737.36,389.41L746.74,389.41L756.12,389.41L765.5,389.41L774.88,389.41L784.26,389.41L793.64,389.41L803.02,389.41L812.4,389.41L821.78,389.41L831.16,389.41L840.54,389.41L849.92,389.41L859.3,389.41L868.68,389.41L878.06,389.41L887.44,389.41L896.82,389.41L906.2,389.41L915.58,389.41L924.96,731.93L934.34,731.93L943.72,731.93L953.1,731.93L962.48,731.93L971.86,731.93L981.24,731.93L990.62,731.93L1000,731.93" style="fill:none;stroke:#F47D23;stroke-width:0.625" />
<path d="M975,94.698L1000,94.698" style="fill:none;stroke:#EE2E2F;stroke-width:0.625" />
<text x="869.63" y="-88.908" transform="scale(1, -1)"
	style="font-family:Times;font-weight:normal;font-style:normal;font-size:12pt">current heap size</text>
<path d="M975,80.838L1000,80.838" style="fill:none;stroke:#008C48;stroke-width:0.625" />
<text x="885.43" y="-75.047" transform="scale(1, -1)"
	style="font-family:Times;font-weight:normal;font-style:normal;font-size:12pt">total heap size</text>
<path d="M975,66.977L1000,66.977" style="fill:none;stroke:#185AA9;stroke-width:0.625" />
<text x="807.52" y="-61.187" transform="scale(1, -1)"
	style="font-family:Times;font-weight:normal;font-style:normal;font-size:12pt">memory allocated from OS</text>
<path d="M975,53.117L1000,53.117" style="fill:none;stroke:#F47D23;stroke-width:0.625" />
<text x="690.88" y="-47.327" transform="scale(1, -1)"
	style="font-family:Times;font-weight:normal;font-style:normal;font-size:12pt">effective memory consumption of the program</text>
</g>
</svg>
