<?xml version="1.0"?>
<!-- Generated by SVGo and Plotinum VG -->
<svg width="11.111in" height="8.3333in"
	xmlns="http://www.w3.org/2000/svg" 
	xmlns:xlink="http://www.w3.org/1999/xlink">
<g transform="scale(1, -1) translate(0, -750)">
<path d="M0,0L1000,0L1000,750L0,750Z" style="fill:#FFFFFF" />
<text x="308.18" y="-737.28" transform="scale(1, -1)"
	style="font-family:Times;font-weight:normal;font-style:normal;font-size:12pt">Effective memory usage of archive/tar for 25 files (80MB each)</text>
<text x="432.37" y="-5.355" transform="scale(1, -1)"
	style="font-family:Times;font-weight:normal;font-style:normal;font-size:12pt">Number of 80MB files in archive</text>
<text x="68.25" y="-19.025" transform="scale(1, -1)"
	style="font-family:Times;font-weight:normal;font-style:normal;font-size:10pt">0</text>
<text x="375.71" y="-19.025" transform="scale(1, -1)"
	style="font-family:Times;font-weight:normal;font-style:normal;font-size:10pt">8</text>
<text x="680.04" y="-19.025" transform="scale(1, -1)"
	style="font-family:Times;font-weight:normal;font-style:normal;font-size:10pt">16</text>
<text x="987.5" y="-19.025" transform="scale(1, -1)"
	style="font-family:Times;font-weight:normal;font-style:normal;font-size:10pt">24</text>
<path d="M71.375,29.625L71.375,39.625" style="fill:none;stroke:#000000;stroke-width:0.625" />
<path d="M378.83,29.625L378.83,39.625" style="fill:none;stroke:#000000;stroke-width:0.625" />
<path d="M686.29,29.625L686.29,39.625" style="fill:none;stroke:#000000;stroke-width:0.625" />
<path d="M993.75,29.625L993.75,39.625" style="fill:none;stroke:#000000;stroke-width:0.625" />
<path d="M225.1,34.625L225.1,39.625" style="fill:none;stroke:#000000;stroke-width:0.625" />
<path d="M532.56,34.625L532.56,39.625" style="fill:none;stroke:#000000;stroke-width:0.625" />
<path d="M840.02,34.625L840.02,39.625" style="fill:none;stroke:#000000;stroke-width:0.625" />
<path d="M71.375,39.625L993.75,39.625" style="fill:none;stroke:#000000;stroke-width:0.625" />
<g transform="rotate(90)">
<text x="344.27" y="12.72" transform="scale(1, -1)"
	style="font-family:Times;font-weight:normal;font-style:normal;font-size:12pt">Memory usage</text>
</g>
<text x="18.075" y="-169.97" transform="scale(1, -1)"
	style="font-family:Times;font-weight:normal;font-style:normal;font-size:10pt">3.0GB</text>
<text x="18.075" y="-309.84" transform="scale(1, -1)"
	style="font-family:Times;font-weight:normal;font-style:normal;font-size:10pt">4.0GB</text>
<text x="18.075" y="-449.7" transform="scale(1, -1)"
	style="font-family:Times;font-weight:normal;font-style:normal;font-size:10pt">5.0GB</text>
<text x="18.075" y="-589.57" transform="scale(1, -1)"
	style="font-family:Times;font-weight:normal;font-style:normal;font-size:10pt">6.0GB</text>
<text x="18.075" y="-100.03" transform="scale(1, -1)"
	style="font-family:Times;font-weight:normal;font-style:normal;font-size:10pt">2.5GB</text>
<text x="18.075" y="-239.9" transform="scale(1, -1)"
	style="font-family:Times;font-weight:normal;font-style:normal;font-size:10pt">3.5GB</text>
<text x="18.075" y="-379.77" transform="scale(1, -1)"
	style="font-family:Times;font-weight:normal;font-style:normal;font-size:10pt">4.5GB</text>
<text x="18.075" y="-519.64" transform="scale(1, -1)"
	style="font-family:Times;font-weight:normal;font-style:normal;font-size:10pt">5.5GB</text>
<text x="18.075" y="-659.5" transform="scale(1, -1)"
	style="font-family:Times;font-weight:normal;font-style:normal;font-size:10pt">6.5GB</text>
<path d="M54.188,174.79L64.188,174.79" style="fill:none;stroke:#000000;stroke-width:0.625" />
<path d="M54.188,314.66L64.188,314.66" style="fill:none;stroke:#000000;stroke-width:0.625" />
<path d="M54.188,454.53L64.188,454.53" style="fill:none;stroke:#000000;stroke-width:0.625" />
<path d="M54.188,594.4L64.188,594.4" style="fill:none;stroke:#000000;stroke-width:0.625" />
<path d="M54.188,104.86L64.188,104.86" style="fill:none;stroke:#000000;stroke-width:0.625" />
<path d="M54.188,244.73L64.188,244.73" style="fill:none;stroke:#000000;stroke-width:0.625" />
<path d="M54.188,384.59L64.188,384.59" style="fill:none;stroke:#000000;stroke-width:0.625" />
<path d="M54.188,524.46L64.188,524.46" style="fill:none;stroke:#000000;stroke-width:0.625" />
<path d="M54.188,664.33L64.188,664.33" style="fill:none;stroke:#000000;stroke-width:0.625" />
<path d="M64.188,46.188L64.188,731.93" style="fill:none;stroke:#000000;stroke-width:0.625" />
<path d="M71.375,46.188L71.375,731.93" style="fill:none;stroke:#808080;stroke-width:0.3125" />
<path d="M378.83,46.188L378.83,731.93" style="fill:none;stroke:#808080;stroke-width:0.3125" />
<path d="M686.29,46.188L686.29,731.93" style="fill:none;stroke:#808080;stroke-width:0.3125" />
<path d="M993.75,46.188L993.75,731.93" style="fill:none;stroke:#808080;stroke-width:0.3125" />
<path d="M71.375,174.79L993.75,174.79" style="fill:none;stroke:#808080;stroke-width:0.3125" />
<path d="M71.375,314.66L993.75,314.66" style="fill:none;stroke:#808080;stroke-width:0.3125" />
<path d="M71.375,454.53L993.75,454.53" style="fill:none;stroke:#808080;stroke-width:0.3125" />
<path d="M71.375,594.4L993.75,594.4" style="fill:none;stroke:#808080;stroke-width:0.3125" />
<path d="M71.375,104.86L993.75,104.86" style="fill:none;stroke:#808080;stroke-width:0.3125" />
<path d="M71.375,244.73L993.75,244.73" style="fill:none;stroke:#808080;stroke-width:0.3125" />
<path d="M71.375,384.59L993.75,384.59" style="fill:none;stroke:#808080;stroke-width:0.3125" />
<path d="M71.375,524.46L993.75,524.46" style="fill:none;stroke:#808080;stroke-width:0.3125" />
<path d="M71.375,664.33L993.75,664.33" style="fill:none;stroke:#808080;stroke-width:0.3125" />
<path d="M71.375,46.188L109.81,79.757L148.24,79.757L186.67,158.08L225.1,158.08L263.54,158.08L301.97,158.08L340.4,314.74L378.83,314.74L417.27,314.74L455.7,314.74L494.13,314.74L532.56,314.74L570.99,314.74L609.43,314.74L647.86,661.61L686.29,661.61L724.72,661.61L763.16,661.61L801.59,661.61L840.02,661.61L878.45,661.61L916.89,661.61L955.32,661.61L993.75,661.61" style="fill:none;stroke:#EE2E2F;stroke-width:0.625" />
<path d="M71.375,46.57L109.81,80.156L148.24,80.156L186.67,158.49L225.1,158.49L263.54,158.49L301.97,158.49L340.4,326.35L378.83,326.35L417.27,326.35L455.7,326.35L494.13,326.35L532.56,326.35L570.99,326.35L609.43,326.35L647.86,673.24L686.29,673.24L724.72,673.24L763.16,673.24L801.59,673.24L840.02,673.24L878.45,673.24L916.89,673.24L955.32,673.24L993.75,673.24" style="fill:none;stroke:#008C48;stroke-width:0.625" />
<path d="M71.375,65.478L109.81,101.2L148.24,101.2L186.67,184.5L225.1,184.5L263.54,184.5L301.97,184.5L340.4,363.01L378.83,363.01L417.27,363.01L455.7,363.01L494.13,363.01L532.56,363.01L570.99,363.01L609.43,363.01L647.86,731.93L686.29,731.93L724.72,731.93L763.16,731.93L801.59,731.93L840.02,731.93L878.45,731.93L916.89,731.93L955.32,731.93L993.75,731.93" style="fill:none;stroke:#185AA9;stroke-width:0.625" />
<path d="M71.375,65.478L109.81,101.2L148.24,101.2L186.67,184.5L225.1,184.5L263.54,184.5L301.97,184.5L340.4,363.01L378.83,363.01L417.27,363.01L455.7,363.01L494.13,363.01L532.56,363.01L570.99,363.01L609.43,363.01L647.86,731.93L686.29,731.93L724.72,731.93L763.16,731.93L801.59,731.93L840.02,731.93L878.45,731.93L916.89,731.93L955.32,731.93L993.75,731.93" style="fill:none;stroke:#F47D23;stroke-width:0.625" />
<path d="M975,94.698L1000,94.698" style="fill:none;stroke:#EE2E2F;stroke-width:0.625" />
<text x="869.63" y="-88.908" transform="scale(1, -1)"
	style="font-family:Times;font-weight:normal;font-style:normal;font-size:12pt">current heap size</text>
<path d="M975,80.838L1000,80.838" style="fill:none;stroke:#008C48;stroke-width:0.625" />
<text x="885.43" y="-75.047" transform="scale(1, -1)"
	style="font-family:Times;font-weight:normal;font-style:normal;font-size:12pt">total heap size</text>
<path d="M975,66.977L1000,66.977" style="fill:none;stroke:#185AA9;stroke-width:0.625" />
<text x="807.52" y="-61.187" transform="scale(1, -1)"
	style="font-family:Times;font-weight:normal;font-style:normal;font-size:12pt">memory allocated from OS</text>
<path d="M975,53.117L1000,53.117" style="fill:none;stroke:#F47D23;stroke-width:0.625" />
<text x="690.88" y="-47.327" transform="scale(1, -1)"
	style="font-family:Times;font-weight:normal;font-style:normal;font-size:12pt">effective memory consumption of the program</text>
</g>
</svg>
