<?xml version="1.0"?>
<!-- Generated by SVGo and Plotinum VG -->
<svg width="11.111in" height="8.3333in"
	xmlns="http://www.w3.org/2000/svg" 
	xmlns:xlink="http://www.w3.org/1999/xlink">
<g transform="scale(1, -1) translate(0, -750)">
<path d="M0,0L1000,0L1000,750L0,750Z" style="fill:#FFFFFF" />
<text x="308.18" y="-737.28" transform="scale(1, -1)"
	style="font-family:Times;font-weight:normal;font-style:normal;font-size:12pt">Effective memory usage of archive/tar for 25 files (40MB each)</text>
<text x="432.37" y="-5.355" transform="scale(1, -1)"
	style="font-family:Times;font-weight:normal;font-style:normal;font-size:12pt">Number of 40MB files in archive</text>
<text x="68.25" y="-19.025" transform="scale(1, -1)"
	style="font-family:Times;font-weight:normal;font-style:normal;font-size:10pt">0</text>
<text x="375.71" y="-19.025" transform="scale(1, -1)"
	style="font-family:Times;font-weight:normal;font-style:normal;font-size:10pt">8</text>
<text x="680.04" y="-19.025" transform="scale(1, -1)"
	style="font-family:Times;font-weight:normal;font-style:normal;font-size:10pt">16</text>
<text x="987.5" y="-19.025" transform="scale(1, -1)"
	style="font-family:Times;font-weight:normal;font-style:normal;font-size:10pt">24</text>
<path d="M71.375,29.625L71.375,39.625" style="fill:none;stroke:#000000;stroke-width:0.625" />
<path d="M378.83,29.625L378.83,39.625" style="fill:none;stroke:#000000;stroke-width:0.625" />
<path d="M686.29,29.625L686.29,39.625" style="fill:none;stroke:#000000;stroke-width:0.625" />
<path d="M993.75,29.625L993.75,39.625" style="fill:none;stroke:#000000;stroke-width:0.625" />
<path d="M225.1,34.625L225.1,39.625" style="fill:none;stroke:#000000;stroke-width:0.625" />
<path d="M532.56,34.625L532.56,39.625" style="fill:none;stroke:#000000;stroke-width:0.625" />
<path d="M840.02,34.625L840.02,39.625" style="fill:none;stroke:#000000;stroke-width:0.625" />
<path d="M71.375,39.625L993.75,39.625" style="fill:none;stroke:#000000;stroke-width:0.625" />
<g transform="rotate(90)">
<text x="344.27" y="12.72" transform="scale(1, -1)"
	style="font-family:Times;font-weight:normal;font-style:normal;font-size:12pt">Memory usage</text>
</g>
<text x="18.075" y="-197.64" transform="scale(1, -1)"
	style="font-family:Times;font-weight:normal;font-style:normal;font-size:10pt">1.6GB</text>
<text x="18.075" y="-421.1" transform="scale(1, -1)"
	style="font-family:Times;font-weight:normal;font-style:normal;font-size:10pt">2.4GB</text>
<text x="18.075" y="-644.55" transform="scale(1, -1)"
	style="font-family:Times;font-weight:normal;font-style:normal;font-size:10pt">3.2GB</text>
<text x="18.075" y="-85.918" transform="scale(1, -1)"
	style="font-family:Times;font-weight:normal;font-style:normal;font-size:10pt">1.2GB</text>
<text x="18.075" y="-309.37" transform="scale(1, -1)"
	style="font-family:Times;font-weight:normal;font-style:normal;font-size:10pt">2.0GB</text>
<text x="18.075" y="-532.82" transform="scale(1, -1)"
	style="font-family:Times;font-weight:normal;font-style:normal;font-size:10pt">2.8GB</text>
<path d="M54.188,202.47L64.188,202.47" style="fill:none;stroke:#000000;stroke-width:0.625" />
<path d="M54.188,425.92L64.188,425.92" style="fill:none;stroke:#000000;stroke-width:0.625" />
<path d="M54.188,649.37L64.188,649.37" style="fill:none;stroke:#000000;stroke-width:0.625" />
<path d="M54.188,90.743L64.188,90.743" style="fill:none;stroke:#000000;stroke-width:0.625" />
<path d="M54.188,314.19L64.188,314.19" style="fill:none;stroke:#000000;stroke-width:0.625" />
<path d="M54.188,537.65L64.188,537.65" style="fill:none;stroke:#000000;stroke-width:0.625" />
<path d="M64.188,46.188L64.188,731.93" style="fill:none;stroke:#000000;stroke-width:0.625" />
<path d="M71.375,46.188L71.375,731.93" style="fill:none;stroke:#808080;stroke-width:0.3125" />
<path d="M378.83,46.188L378.83,731.93" style="fill:none;stroke:#808080;stroke-width:0.3125" />
<path d="M686.29,46.188L686.29,731.93" style="fill:none;stroke:#808080;stroke-width:0.3125" />
<path d="M993.75,46.188L993.75,731.93" style="fill:none;stroke:#808080;stroke-width:0.3125" />
<path d="M71.375,202.47L993.75,202.47" style="fill:none;stroke:#808080;stroke-width:0.3125" />
<path d="M71.375,425.92L993.75,425.92" style="fill:none;stroke:#808080;stroke-width:0.3125" />
<path d="M71.375,649.37L993.75,649.37" style="fill:none;stroke:#808080;stroke-width:0.3125" />
<path d="M71.375,90.743L993.75,90.743" style="fill:none;stroke:#808080;stroke-width:0.3125" />
<path d="M71.375,314.19L993.75,314.19" style="fill:none;stroke:#808080;stroke-width:0.3125" />
<path d="M71.375,537.65L993.75,537.65" style="fill:none;stroke:#808080;stroke-width:0.3125" />
<path d="M71.375,46.188L109.81,79.707L148.24,79.707L186.67,157.92L225.1,157.92L263.54,157.92L301.97,157.92L340.4,314.34L378.83,314.34L417.27,314.34L455.7,314.34L494.13,314.34L532.56,314.34L570.99,314.34L609.43,314.34L647.86,660.7L686.29,660.69L724.72,660.69L763.16,660.7L801.59,660.7L840.02,660.7L878.45,660.7L916.89,660.7L955.32,660.7L993.75,660.7" style="fill:none;stroke:#EE2E2F;stroke-width:0.625" />
<path d="M71.375,47.13L109.81,80.665L148.24,80.665L186.67,158.9L225.1,158.9L263.54,158.9L301.97,158.9L340.4,326.5L378.83,326.5L417.27,326.5L455.7,326.5L494.13,326.5L532.56,326.5L570.99,326.5L609.43,326.5L647.86,672.87L686.29,672.87L724.72,672.87L763.16,672.87L801.59,672.87L840.02,672.87L878.45,672.87L916.89,672.87L955.32,672.87L993.75,672.87" style="fill:none;stroke:#008C48;stroke-width:0.625" />
<path d="M71.375,66.461L109.81,102.13L148.24,102.13L186.67,185.33L225.1,185.33L263.54,185.33L301.97,185.33L340.4,363.57L378.83,363.57L417.27,363.57L455.7,363.57L494.13,363.57L532.56,363.57L570.99,363.57L609.43,363.57L647.86,731.93L686.29,731.93L724.72,731.93L763.16,731.93L801.59,731.93L840.02,731.93L878.45,731.93L916.89,731.93L955.32,731.93L993.75,731.93" style="fill:none;stroke:#185AA9;stroke-width:0.625" />
<path d="M71.375,66.461L109.81,102.13L148.24,102.13L186.67,185.33L225.1,185.33L263.54,185.33L301.97,185.33L340.4,363.57L378.83,363.57L417.27,363.57L455.7,363.57L494.13,363.57L532.56,363.57L570.99,363.57L609.43,363.57L647.86,731.93L686.29,731.93L724.72,731.93L763.16,731.93L801.59,731.93L840.02,731.93L878.45,731.93L916.89,731.93L955.32,731.93L993.75,731.93" style="fill:none;stroke:#F47D23;stroke-width:0.625" />
<path d="M975,94.698L1000,94.698" style="fill:none;stroke:#EE2E2F;stroke-width:0.625" />
<text x="869.63" y="-88.908" transform="scale(1, -1)"
	style="font-family:Times;font-weight:normal;font-style:normal;font-size:12pt">current heap size</text>
<path d="M975,80.838L1000,80.838" style="fill:none;stroke:#008C48;stroke-width:0.625" />
<text x="885.43" y="-75.047" transform="scale(1, -1)"
	style="font-family:Times;font-weight:normal;font-style:normal;font-size:12pt">total heap size</text>
<path d="M975,66.977L1000,66.977" style="fill:none;stroke:#185AA9;stroke-width:0.625" />
<text x="807.52" y="-61.187" transform="scale(1, -1)"
	style="font-family:Times;font-weight:normal;font-style:normal;font-size:12pt">memory allocated from OS</text>
<path d="M975,53.117L1000,53.117" style="fill:none;stroke:#F47D23;stroke-width:0.625" />
<text x="690.88" y="-47.327" transform="scale(1, -1)"
	style="font-family:Times;font-weight:normal;font-style:normal;font-size:12pt">effective memory consumption of the program</text>
</g>
</svg>
