<?xml version="1.0"?>
<!-- Generated by SVGo and Plotinum VG -->
<svg width="11.111in" height="8.3333in"
	xmlns="http://www.w3.org/2000/svg" 
	xmlns:xlink="http://www.w3.org/1999/xlink">
<g transform="scale(1, -1) translate(0, -750)">
<path d="M0,0L1000,0L1000,750L0,750Z" style="fill:#FFFFFF" />
<text x="304.43" y="-737.28" transform="scale(1, -1)"
	style="font-family:Times;font-weight:normal;font-style:normal;font-size:12pt">Effective memory usage of archive/tar for 10 files (100MB each)</text>
<text x="430.18" y="-5.355" transform="scale(1, -1)"
	style="font-family:Times;font-weight:normal;font-style:normal;font-size:12pt">Number of 100MB files in archive</text>
<text x="68.25" y="-19.025" transform="scale(1, -1)"
	style="font-family:Times;font-weight:normal;font-style:normal;font-size:10pt">0</text>
<text x="376.75" y="-19.025" transform="scale(1, -1)"
	style="font-family:Times;font-weight:normal;font-style:normal;font-size:10pt">3</text>
<text x="685.25" y="-19.025" transform="scale(1, -1)"
	style="font-family:Times;font-weight:normal;font-style:normal;font-size:10pt">6</text>
<text x="993.75" y="-19.025" transform="scale(1, -1)"
	style="font-family:Times;font-weight:normal;font-style:normal;font-size:10pt">9</text>
<path d="M71.375,29.625L71.375,39.625" style="fill:none;stroke:#000000;stroke-width:0.625" />
<path d="M379.88,29.625L379.88,39.625" style="fill:none;stroke:#000000;stroke-width:0.625" />
<path d="M688.37,29.625L688.37,39.625" style="fill:none;stroke:#000000;stroke-width:0.625" />
<path d="M996.88,29.625L996.88,39.625" style="fill:none;stroke:#000000;stroke-width:0.625" />
<path d="M174.21,34.625L174.21,39.625" style="fill:none;stroke:#000000;stroke-width:0.625" />
<path d="M277.04,34.625L277.04,39.625" style="fill:none;stroke:#000000;stroke-width:0.625" />
<path d="M482.71,34.625L482.71,39.625" style="fill:none;stroke:#000000;stroke-width:0.625" />
<path d="M585.54,34.625L585.54,39.625" style="fill:none;stroke:#000000;stroke-width:0.625" />
<path d="M791.21,34.625L791.21,39.625" style="fill:none;stroke:#000000;stroke-width:0.625" />
<path d="M894.04,34.625L894.04,39.625" style="fill:none;stroke:#000000;stroke-width:0.625" />
<path d="M71.375,39.625L996.88,39.625" style="fill:none;stroke:#000000;stroke-width:0.625" />
<g transform="rotate(90)">
<text x="344.27" y="12.72" transform="scale(1, -1)"
	style="font-family:Times;font-weight:normal;font-style:normal;font-size:12pt">Memory usage</text>
</g>
<text x="18.075" y="-75.717" transform="scale(1, -1)"
	style="font-family:Times;font-weight:normal;font-style:normal;font-size:10pt">1.2GB</text>
<text x="18.075" y="-282.68" transform="scale(1, -1)"
	style="font-family:Times;font-weight:normal;font-style:normal;font-size:10pt">1.8GB</text>
<text x="18.075" y="-489.65" transform="scale(1, -1)"
	style="font-family:Times;font-weight:normal;font-style:normal;font-size:10pt">2.4GB</text>
<text x="18.075" y="-696.61" transform="scale(1, -1)"
	style="font-family:Times;font-weight:normal;font-style:normal;font-size:10pt">3.0GB</text>
<text x="18.075" y="-144.71" transform="scale(1, -1)"
	style="font-family:Times;font-weight:normal;font-style:normal;font-size:10pt">1.4GB</text>
<text x="18.075" y="-213.69" transform="scale(1, -1)"
	style="font-family:Times;font-weight:normal;font-style:normal;font-size:10pt">1.6GB</text>
<text x="18.075" y="-351.67" transform="scale(1, -1)"
	style="font-family:Times;font-weight:normal;font-style:normal;font-size:10pt">2.0GB</text>
<text x="18.075" y="-420.66" transform="scale(1, -1)"
	style="font-family:Times;font-weight:normal;font-style:normal;font-size:10pt">2.2GB</text>
<text x="18.075" y="-558.63" transform="scale(1, -1)"
	style="font-family:Times;font-weight:normal;font-style:normal;font-size:10pt">2.6GB</text>
<text x="18.075" y="-627.62" transform="scale(1, -1)"
	style="font-family:Times;font-weight:normal;font-style:normal;font-size:10pt">2.8GB</text>
<path d="M54.188,80.542L64.188,80.542" style="fill:none;stroke:#000000;stroke-width:0.625" />
<path d="M54.188,287.51L64.188,287.51" style="fill:none;stroke:#000000;stroke-width:0.625" />
<path d="M54.188,494.47L64.188,494.47" style="fill:none;stroke:#000000;stroke-width:0.625" />
<path d="M54.188,701.44L64.188,701.44" style="fill:none;stroke:#000000;stroke-width:0.625" />
<path d="M54.188,149.53L64.188,149.53" style="fill:none;stroke:#000000;stroke-width:0.625" />
<path d="M54.188,218.52L64.188,218.52" style="fill:none;stroke:#000000;stroke-width:0.625" />
<path d="M54.188,356.49L64.188,356.49" style="fill:none;stroke:#000000;stroke-width:0.625" />
<path d="M54.188,425.48L64.188,425.48" style="fill:none;stroke:#000000;stroke-width:0.625" />
<path d="M54.188,563.46L64.188,563.46" style="fill:none;stroke:#000000;stroke-width:0.625" />
<path d="M54.188,632.45L64.188,632.45" style="fill:none;stroke:#000000;stroke-width:0.625" />
<path d="M64.188,46.188L64.188,731.93" style="fill:none;stroke:#000000;stroke-width:0.625" />
<path d="M71.375,46.188L71.375,731.93" style="fill:none;stroke:#808080;stroke-width:0.3125" />
<path d="M379.88,46.188L379.88,731.93" style="fill:none;stroke:#808080;stroke-width:0.3125" />
<path d="M688.37,46.188L688.37,731.93" style="fill:none;stroke:#808080;stroke-width:0.3125" />
<path d="M996.88,46.188L996.88,731.93" style="fill:none;stroke:#808080;stroke-width:0.3125" />
<path d="M71.375,80.542L996.88,80.542" style="fill:none;stroke:#808080;stroke-width:0.3125" />
<path d="M71.375,287.51L996.88,287.51" style="fill:none;stroke:#808080;stroke-width:0.3125" />
<path d="M71.375,494.47L996.88,494.47" style="fill:none;stroke:#808080;stroke-width:0.3125" />
<path d="M71.375,701.44L996.88,701.44" style="fill:none;stroke:#808080;stroke-width:0.3125" />
<path d="M71.375,149.53L996.88,149.53" style="fill:none;stroke:#808080;stroke-width:0.3125" />
<path d="M71.375,218.52L996.88,218.52" style="fill:none;stroke:#808080;stroke-width:0.3125" />
<path d="M71.375,356.49L996.88,356.49" style="fill:none;stroke:#808080;stroke-width:0.3125" />
<path d="M71.375,425.48L996.88,425.48" style="fill:none;stroke:#808080;stroke-width:0.3125" />
<path d="M71.375,563.46L996.88,563.46" style="fill:none;stroke:#808080;stroke-width:0.3125" />
<path d="M71.375,632.45L996.88,632.45" style="fill:none;stroke:#808080;stroke-width:0.3125" />
<path d="M71.375,46.188L174.21,115.18L277.04,287.65L379.88,287.65L482.71,287.65L585.54,632.59L688.37,632.6L791.21,632.6L894.04,632.6L996.88,632.6" style="fill:none;stroke:#EE2E2F;stroke-width:0.625" />
<path d="M71.375,46.44L174.21,115.43L277.04,287.92L379.88,287.92L482.71,287.92L585.54,667.38L688.37,667.38L791.21,667.38L894.04,667.38L996.88,667.38" style="fill:none;stroke:#008C48;stroke-width:0.625" />
<path d="M71.375,71.567L174.21,144.94L277.04,328.37L379.88,328.37L482.71,328.37L585.54,731.93L688.37,731.93L791.21,731.93L894.04,731.93L996.88,731.93" style="fill:none;stroke:#185AA9;stroke-width:0.625" />
<path d="M71.375,71.567L174.21,144.94L277.04,328.37L379.88,328.37L482.71,328.37L585.54,731.93L688.37,731.93L791.21,731.93L894.04,731.93L996.88,731.93" style="fill:none;stroke:#F47D23;stroke-width:0.625" />
<path d="M975,94.698L1000,94.698" style="fill:none;stroke:#EE2E2F;stroke-width:0.625" />
<text x="869.63" y="-88.908" transform="scale(1, -1)"
	style="font-family:Times;font-weight:normal;font-style:normal;font-size:12pt">current heap size</text>
<path d="M975,80.838L1000,80.838" style="fill:none;stroke:#008C48;stroke-width:0.625" />
<text x="885.43" y="-75.047" transform="scale(1, -1)"
	style="font-family:Times;font-weight:normal;font-style:normal;font-size:12pt">total heap size</text>
<path d="M975,66.977L1000,66.977" style="fill:none;stroke:#185AA9;stroke-width:0.625" />
<text x="807.52" y="-61.187" transform="scale(1, -1)"
	style="font-family:Times;font-weight:normal;font-style:normal;font-size:12pt">memory allocated from OS</text>
<path d="M975,53.117L1000,53.117" style="fill:none;stroke:#F47D23;stroke-width:0.625" />
<text x="690.88" y="-47.327" transform="scale(1, -1)"
	style="font-family:Times;font-weight:normal;font-style:normal;font-size:12pt">effective memory consumption of the program</text>
</g>
</svg>
