<?xml version="1.0"?>
<!-- Generated by SVGo and Plotinum VG -->
<svg width="11.111in" height="8.3333in"
	xmlns="http://www.w3.org/2000/svg" 
	xmlns:xlink="http://www.w3.org/1999/xlink">
<g transform="scale(1, -1) translate(0, -750)">
<path d="M0,0L1000,0L1000,750L0,750Z" style="fill:#FFFFFF" />
<text x="308.18" y="-737.28" transform="scale(1, -1)"
	style="font-family:Times;font-weight:normal;font-style:normal;font-size:12pt">Effective memory usage of archive/tar for 10 files (10MB each)</text>
<text x="437.8" y="-5.355" transform="scale(1, -1)"
	style="font-family:Times;font-weight:normal;font-style:normal;font-size:12pt">Number of 10MB files in archive</text>
<text x="75.987" y="-19.025" transform="scale(1, -1)"
	style="font-family:Times;font-weight:normal;font-style:normal;font-size:10pt">0</text>
<text x="381.91" y="-19.025" transform="scale(1, -1)"
	style="font-family:Times;font-weight:normal;font-style:normal;font-size:10pt">3</text>
<text x="687.83" y="-19.025" transform="scale(1, -1)"
	style="font-family:Times;font-weight:normal;font-style:normal;font-size:10pt">6</text>
<text x="993.75" y="-19.025" transform="scale(1, -1)"
	style="font-family:Times;font-weight:normal;font-style:normal;font-size:10pt">9</text>
<path d="M79.112,29.625L79.112,39.625" style="fill:none;stroke:#000000;stroke-width:0.625" />
<path d="M385.03,29.625L385.03,39.625" style="fill:none;stroke:#000000;stroke-width:0.625" />
<path d="M690.95,29.625L690.95,39.625" style="fill:none;stroke:#000000;stroke-width:0.625" />
<path d="M996.88,29.625L996.88,39.625" style="fill:none;stroke:#000000;stroke-width:0.625" />
<path d="M181.09,34.625L181.09,39.625" style="fill:none;stroke:#000000;stroke-width:0.625" />
<path d="M283.06,34.625L283.06,39.625" style="fill:none;stroke:#000000;stroke-width:0.625" />
<path d="M487.01,34.625L487.01,39.625" style="fill:none;stroke:#000000;stroke-width:0.625" />
<path d="M588.98,34.625L588.98,39.625" style="fill:none;stroke:#000000;stroke-width:0.625" />
<path d="M792.93,34.625L792.93,39.625" style="fill:none;stroke:#000000;stroke-width:0.625" />
<path d="M894.9,34.625L894.9,39.625" style="fill:none;stroke:#000000;stroke-width:0.625" />
<path d="M79.112,39.625L996.88,39.625" style="fill:none;stroke:#000000;stroke-width:0.625" />
<g transform="rotate(90)">
<text x="321.57" y="12.72" transform="scale(1, -1)"
	style="font-family:Times;font-weight:normal;font-style:normal;font-size:12pt">Memory usage (bytes)</text>
</g>
<text x="18.075" y="-70.51" transform="scale(1, -1)"
	style="font-family:Times;font-weight:normal;font-style:normal;font-size:10pt">1.2e+08</text>
<text x="18.075" y="-273.8" transform="scale(1, -1)"
	style="font-family:Times;font-weight:normal;font-style:normal;font-size:10pt">1.8e+08</text>
<text x="18.075" y="-477.08" transform="scale(1, -1)"
	style="font-family:Times;font-weight:normal;font-style:normal;font-size:10pt">2.4e+08</text>
<text x="27.45" y="-680.37" transform="scale(1, -1)"
	style="font-family:Times;font-weight:normal;font-style:normal;font-size:10pt">3e+08</text>
<path d="M61.925,75.335L71.925,75.335" style="fill:none;stroke:#000000;stroke-width:0.625" />
<path d="M61.925,278.62L71.925,278.62" style="fill:none;stroke:#000000;stroke-width:0.625" />
<path d="M61.925,481.91L71.925,481.91" style="fill:none;stroke:#000000;stroke-width:0.625" />
<path d="M61.925,685.19L71.925,685.19" style="fill:none;stroke:#000000;stroke-width:0.625" />
<path d="M66.925,143.1L71.925,143.1" style="fill:none;stroke:#000000;stroke-width:0.625" />
<path d="M66.925,210.86L71.925,210.86" style="fill:none;stroke:#000000;stroke-width:0.625" />
<path d="M66.925,346.38L71.925,346.38" style="fill:none;stroke:#000000;stroke-width:0.625" />
<path d="M66.925,414.15L71.925,414.15" style="fill:none;stroke:#000000;stroke-width:0.625" />
<path d="M66.925,549.67L71.925,549.67" style="fill:none;stroke:#000000;stroke-width:0.625" />
<path d="M66.925,617.43L71.925,617.43" style="fill:none;stroke:#000000;stroke-width:0.625" />
<path d="M71.925,46.188L71.925,731.93" style="fill:none;stroke:#000000;stroke-width:0.625" />
<path d="M79.112,82.547L181.09,154.81L283.06,335.22L385.03,335.22L487.01,335.22L588.98,731.93L690.95,731.93L792.93,731.93L894.9,731.93L996.88,731.93" style="fill:none;stroke:#0000FF;stroke-opacity:0.49804;stroke-width:2.5" />
<path d="M79.112,46.188L181.09,82.547L283.06,154.81L385.03,335.22L487.01,335.22L588.98,335.22L690.95,731.93L792.93,731.93L894.9,731.93L996.88,731.93" style="fill:none;stroke:#000000;stroke-width:1.25" />
<path d="M79.112,46.188L79.112,731.93" style="fill:none;stroke:#808080;stroke-width:0.3125" />
<path d="M385.03,46.188L385.03,731.93" style="fill:none;stroke:#808080;stroke-width:0.3125" />
<path d="M690.95,46.188L690.95,731.93" style="fill:none;stroke:#808080;stroke-width:0.3125" />
<path d="M996.88,46.188L996.88,731.93" style="fill:none;stroke:#808080;stroke-width:0.3125" />
<path d="M79.112,75.335L996.88,75.335" style="fill:none;stroke:#808080;stroke-width:0.3125" />
<path d="M79.112,278.62L996.88,278.62" style="fill:none;stroke:#808080;stroke-width:0.3125" />
<path d="M79.112,481.91L996.88,481.91" style="fill:none;stroke:#808080;stroke-width:0.3125" />
<path d="M79.112,685.19L996.88,685.19" style="fill:none;stroke:#808080;stroke-width:0.3125" />
<path d="M975,66.978L1000,66.978" style="fill:none;stroke:#0000FF;stroke-opacity:0.49804;stroke-width:2.5" />
<text x="939.6" y="-61.188" transform="scale(1, -1)"
	style="font-family:Times;font-weight:normal;font-style:normal;font-size:12pt">After</text>
<path d="M975,53.117L1000,53.117" style="fill:none;stroke:#000000;stroke-width:1.25" />
<text x="930.43" y="-47.328" transform="scale(1, -1)"
	style="font-family:Times;font-weight:normal;font-style:normal;font-size:12pt">Before</text>
</g>
</svg>
