<?xml version="1.0"?>
<!-- Generated by SVGo and Plotinum VG -->
<svg width="11.111in" height="8.3333in"
	xmlns="http://www.w3.org/2000/svg" 
	xmlns:xlink="http://www.w3.org/1999/xlink">
<g transform="scale(1, -1) translate(0, -750)">
<path d="M0,0L1000,0L1000,750L0,750Z" style="fill:#FFFFFF" />
<text x="308.18" y="-737.28" transform="scale(1, -1)"
	style="font-family:Times;font-weight:normal;font-style:normal;font-size:12pt">Effective memory usage of archive/tar for 100 files (1MB each)</text>
<text x="441.85" y="-5.355" transform="scale(1, -1)"
	style="font-family:Times;font-weight:normal;font-style:normal;font-size:12pt">Number of 1MB files in archive</text>
<text x="73.463" y="-19.025" transform="scale(1, -1)"
	style="font-family:Times;font-weight:normal;font-style:normal;font-size:10pt">0</text>
<text x="350.16" y="-19.025" transform="scale(1, -1)"
	style="font-family:Times;font-weight:normal;font-style:normal;font-size:10pt">30</text>
<text x="629.98" y="-19.025" transform="scale(1, -1)"
	style="font-family:Times;font-weight:normal;font-style:normal;font-size:10pt">60</text>
<text x="909.8" y="-19.025" transform="scale(1, -1)"
	style="font-family:Times;font-weight:normal;font-style:normal;font-size:10pt">90</text>
<path d="M76.588,29.625L76.588,39.625" style="fill:none;stroke:#000000;stroke-width:0.625" />
<path d="M356.41,29.625L356.41,39.625" style="fill:none;stroke:#000000;stroke-width:0.625" />
<path d="M636.23,29.625L636.23,39.625" style="fill:none;stroke:#000000;stroke-width:0.625" />
<path d="M916.05,29.625L916.05,39.625" style="fill:none;stroke:#000000;stroke-width:0.625" />
<path d="M169.86,34.625L169.86,39.625" style="fill:none;stroke:#000000;stroke-width:0.625" />
<path d="M263.14,34.625L263.14,39.625" style="fill:none;stroke:#000000;stroke-width:0.625" />
<path d="M449.68,34.625L449.68,39.625" style="fill:none;stroke:#000000;stroke-width:0.625" />
<path d="M542.96,34.625L542.96,39.625" style="fill:none;stroke:#000000;stroke-width:0.625" />
<path d="M729.51,34.625L729.51,39.625" style="fill:none;stroke:#000000;stroke-width:0.625" />
<path d="M822.78,34.625L822.78,39.625" style="fill:none;stroke:#000000;stroke-width:0.625" />
<path d="M76.588,39.625L1000,39.625" style="fill:none;stroke:#000000;stroke-width:0.625" />
<g transform="rotate(90)">
<text x="344.27" y="12.72" transform="scale(1, -1)"
	style="font-family:Times;font-weight:normal;font-style:normal;font-size:12pt">Memory usage</text>
</g>
<text x="18.075" y="-218.43" transform="scale(1, -1)"
	style="font-family:Times;font-weight:normal;font-style:normal;font-size:10pt">200MB</text>
<text x="18.075" y="-400.68" transform="scale(1, -1)"
	style="font-family:Times;font-weight:normal;font-style:normal;font-size:10pt">300MB</text>
<text x="18.075" y="-582.92" transform="scale(1, -1)"
	style="font-family:Times;font-weight:normal;font-style:normal;font-size:10pt">400MB</text>
<text x="18.075" y="-127.31" transform="scale(1, -1)"
	style="font-family:Times;font-weight:normal;font-style:normal;font-size:10pt">150MB</text>
<text x="18.075" y="-309.55" transform="scale(1, -1)"
	style="font-family:Times;font-weight:normal;font-style:normal;font-size:10pt">250MB</text>
<text x="18.075" y="-491.8" transform="scale(1, -1)"
	style="font-family:Times;font-weight:normal;font-style:normal;font-size:10pt">350MB</text>
<text x="18.075" y="-674.05" transform="scale(1, -1)"
	style="font-family:Times;font-weight:normal;font-style:normal;font-size:10pt">450MB</text>
<path d="M59.4,223.26L69.4,223.26" style="fill:none;stroke:#000000;stroke-width:0.625" />
<path d="M59.4,405.5L69.4,405.5" style="fill:none;stroke:#000000;stroke-width:0.625" />
<path d="M59.4,587.75L69.4,587.75" style="fill:none;stroke:#000000;stroke-width:0.625" />
<path d="M59.4,132.13L69.4,132.13" style="fill:none;stroke:#000000;stroke-width:0.625" />
<path d="M59.4,314.38L69.4,314.38" style="fill:none;stroke:#000000;stroke-width:0.625" />
<path d="M59.4,496.62L69.4,496.62" style="fill:none;stroke:#000000;stroke-width:0.625" />
<path d="M59.4,678.87L69.4,678.87" style="fill:none;stroke:#000000;stroke-width:0.625" />
<path d="M69.4,46.188L69.4,731.93" style="fill:none;stroke:#000000;stroke-width:0.625" />
<path d="M76.588,46.188L76.588,731.93" style="fill:none;stroke:#808080;stroke-width:0.3125" />
<path d="M356.41,46.188L356.41,731.93" style="fill:none;stroke:#808080;stroke-width:0.3125" />
<path d="M636.23,46.188L636.23,731.93" style="fill:none;stroke:#808080;stroke-width:0.3125" />
<path d="M916.05,46.188L916.05,731.93" style="fill:none;stroke:#808080;stroke-width:0.3125" />
<path d="M76.588,223.26L1000,223.26" style="fill:none;stroke:#808080;stroke-width:0.3125" />
<path d="M76.588,405.5L1000,405.5" style="fill:none;stroke:#808080;stroke-width:0.3125" />
<path d="M76.588,587.75L1000,587.75" style="fill:none;stroke:#808080;stroke-width:0.3125" />
<path d="M76.588,132.13L1000,132.13" style="fill:none;stroke:#808080;stroke-width:0.3125" />
<path d="M76.588,314.38L1000,314.38" style="fill:none;stroke:#808080;stroke-width:0.3125" />
<path d="M76.588,496.62L1000,496.62" style="fill:none;stroke:#808080;stroke-width:0.3125" />
<path d="M76.588,678.87L1000,678.87" style="fill:none;stroke:#808080;stroke-width:0.3125" />
<path d="M76.588,46.188L85.915,49.847L95.242,58.971L104.57,58.973L113.9,58.975L123.22,77.236L132.55,77.238L141.88,77.24L151.21,77.241L160.53,77.243L169.86,115.57L179.19,115.57L188.52,115.57L197.84,115.58L207.17,115.58L216.5,115.58L225.83,115.58L235.15,115.58L244.48,115.58L253.81,115.59L263.14,115.59L272.46,194.05L281.79,194.02L291.12,194.02L300.45,194.02L309.77,194.02L319.1,194.03L328.43,194.03L337.75,194.03L347.08,194.03L356.41,194.03L365.74,194.04L375.06,194.04L384.39,194.04L393.72,194.04L403.05,194.04L412.37,194.05L421.7,194.03L431.03,194.04L440.36,194.04L449.68,194.04L459.01,194.04L468.34,194.04L477.67,321.72L486.99,319.89L496.32,319.89L505.65,319.89L514.98,319.89L524.3,319.9L533.63,319.9L542.96,319.9L552.28,319.9L561.61,319.9L570.94,319.91L580.27,319.91L589.59,319.91L598.92,319.91L608.25,319.91L617.58,319.92L626.9,319.92L636.23,319.92L645.56,319.92L654.89,319.92L664.21,319.93L673.54,319.93L682.87,319.93L692.2,319.93L701.52,319.93L710.85,319.94L720.18,319.94L729.51,319.94L738.83,319.94L748.16,319.94L757.49,319.94L766.82,319.95L776.14,319.95L785.47,319.95L794.8,319.95L804.12,319.95L813.45,319.96L822.78,319.96L832.11,319.96L841.43,319.96L850.76,319.96L860.09,319.97L869.42,319.97L878.74,319.97L888.07,639.21L897.4,639.18L906.73,639.18L916.05,639.19L925.38,639.19L934.71,639.19L944.04,639.19L953.36,639.19L962.69,639.2L972.02,639.2L981.35,639.2L990.67,639.2L1000,639.2" style="fill:none;stroke:#EE2E2F;stroke-width:0.625" />
<path d="M76.588,47.952L85.915,51.774L95.242,61.09L104.57,61.09L113.9,61.09L123.22,79.483L132.55,79.483L141.88,79.483L151.21,79.483L160.53,79.483L169.86,117.94L179.19,117.94L188.52,117.94L197.84,117.94L207.17,117.94L216.5,117.94L225.83,117.94L235.15,117.94L244.48,117.94L253.81,117.94L263.14,117.94L272.46,196.53L281.79,196.53L291.12,196.53L300.45,196.53L309.77,196.53L319.1,196.53L328.43,196.53L337.75,196.53L347.08,196.53L356.41,196.53L365.74,196.53L375.06,196.53L384.39,196.53L393.72,196.53L403.05,196.53L412.37,196.53L421.7,196.53L431.03,196.53L440.36,196.53L449.68,196.53L459.01,196.53L468.34,196.53L477.67,355.38L486.99,355.38L496.32,355.38L505.65,355.38L514.98,355.38L524.3,355.38L533.63,355.38L542.96,355.38L552.28,355.38L561.61,355.38L570.94,355.38L580.27,355.38L589.59,355.38L598.92,355.38L608.25,355.38L617.58,355.38L626.9,355.38L636.23,355.38L645.56,355.38L654.89,355.38L664.21,355.38L673.54,355.38L682.87,355.38L692.2,355.38L701.52,355.38L710.85,355.38L720.18,355.38L729.51,355.38L738.83,355.38L748.16,355.38L757.49,355.38L766.82,355.38L776.14,355.38L785.47,355.38L794.8,355.38L804.12,355.38L813.45,355.38L822.78,355.38L832.11,355.38L841.43,355.38L850.76,355.38L860.09,355.38L869.42,355.38L878.74,355.38L888.07,674.76L897.4,674.76L906.73,674.76L916.05,674.76L925.38,674.76L934.71,674.76L944.04,674.76L953.36,674.76L962.69,674.76L972.02,674.76L981.35,674.76L990.67,674.76L1000,674.76" style="fill:none;stroke:#008C48;stroke-width:0.625" />
<path d="M76.588,65.334L85.915,69.403L95.242,79.308L104.57,79.308L113.9,79.308L123.22,98.866L132.55,98.866L141.88,98.866L151.21,98.866L160.53,98.866L169.86,139.77L179.19,139.77L188.52,139.77L197.84,139.77L207.17,139.77L216.5,139.77L225.83,139.77L235.15,139.77L244.48,139.77L253.81,139.77L263.14,139.77L272.46,223.35L281.79,223.35L291.12,223.35L300.45,223.35L309.77,223.35L319.1,223.35L328.43,223.35L337.75,223.35L347.08,223.35L356.41,223.35L365.74,223.35L375.06,223.35L384.39,223.35L393.72,223.35L403.05,223.35L412.37,223.35L421.7,223.35L431.03,223.35L440.36,223.35L449.68,223.35L459.01,223.35L468.34,223.35L477.67,392.28L486.99,392.28L496.32,392.28L505.65,392.28L514.98,392.28L524.3,392.28L533.63,392.28L542.96,392.28L552.28,392.28L561.61,392.28L570.94,392.28L580.27,392.28L589.59,392.28L598.92,392.28L608.25,392.28L617.58,392.28L626.9,392.28L636.23,392.28L645.56,392.28L654.89,392.28L664.21,392.28L673.54,392.28L682.87,392.28L692.2,392.28L701.52,392.28L710.85,392.28L720.18,392.28L729.51,392.28L738.83,392.28L748.16,392.28L757.49,392.28L766.82,392.28L776.14,392.28L785.47,392.28L794.8,392.28L804.12,392.28L813.45,392.28L822.78,392.28L832.11,392.28L841.43,392.28L850.76,392.28L860.09,392.28L869.42,392.28L878.74,392.28L888.07,731.93L897.4,731.93L906.73,731.93L916.05,731.93L925.38,731.93L934.71,731.93L944.04,731.93L953.36,731.93L962.69,731.93L972.02,731.93L981.35,731.93L990.67,731.93L1000,731.93" style="fill:none;stroke:#185AA9;stroke-width:0.625" />
<path d="M76.588,65.334L85.915,69.403L95.242,79.308L104.57,79.308L113.9,79.308L123.22,98.866L132.55,98.866L141.88,98.866L151.21,98.866L160.53,98.866L169.86,139.77L179.19,139.77L188.52,139.77L197.84,139.77L207.17,139.77L216.5,139.77L225.83,139.77L235.15,139.77L244.48,139.77L253.81,139.77L263.14,139.77L272.46,223.35L281.79,223.35L291.12,223.35L300.45,223.35L309.77,223.35L319.1,223.35L328.43,223.35L337.75,223.35L347.08,223.35L356.41,223.35L365.74,223.35L375.06,223.35L384.39,223.35L393.72,223.35L403.05,223.35L412.37,223.35L421.7,223.35L431.03,223.35L440.36,223.35L449.68,223.35L459.01,223.35L468.34,223.35L477.67,392.28L486.99,392.28L496.32,392.28L505.65,392.28L514.98,392.28L524.3,392.28L533.63,392.28L542.96,392.28L552.28,392.28L561.61,392.28L570.94,392.28L580.27,392.28L589.59,392.28L598.92,392.28L608.25,392.28L617.58,392.28L626.9,392.28L636.23,392.28L645.56,392.28L654.89,392.28L664.21,392.28L673.54,392.28L682.87,392.28L692.2,392.28L701.52,392.28L710.85,392.28L720.18,392.28L729.51,392.28L738.83,392.28L748.16,392.28L757.49,392.28L766.82,392.28L776.14,392.28L785.47,392.28L794.8,392.28L804.12,392.28L813.45,392.28L822.78,392.28L832.11,392.28L841.43,392.28L850.76,392.28L860.09,392.28L869.42,392.28L878.74,392.28L888.07,731.93L897.4,731.93L906.73,731.93L916.05,731.93L925.38,731.93L934.71,731.93L944.04,731.93L953.36,731.93L962.69,731.93L972.02,731.93L981.35,731.93L990.67,731.93L1000,731.93" style="fill:none;stroke:#F47D23;stroke-width:0.625" />
<path d="M975,94.698L1000,94.698" style="fill:none;stroke:#EE2E2F;stroke-width:0.625" />
<text x="869.63" y="-88.908" transform="scale(1, -1)"
	style="font-family:Times;font-weight:normal;font-style:normal;font-size:12pt">current heap size</text>
<path d="M975,80.838L1000,80.838" style="fill:none;stroke:#008C48;stroke-width:0.625" />
<text x="885.43" y="-75.047" transform="scale(1, -1)"
	style="font-family:Times;font-weight:normal;font-style:normal;font-size:12pt">total heap size</text>
<path d="M975,66.977L1000,66.977" style="fill:none;stroke:#185AA9;stroke-width:0.625" />
<text x="807.52" y="-61.187" transform="scale(1, -1)"
	style="font-family:Times;font-weight:normal;font-style:normal;font-size:12pt">memory allocated from OS</text>
<path d="M975,53.117L1000,53.117" style="fill:none;stroke:#F47D23;stroke-width:0.625" />
<text x="690.88" y="-47.327" transform="scale(1, -1)"
	style="font-family:Times;font-weight:normal;font-style:normal;font-size:12pt">effective memory consumption of the program</text>
</g>
</svg>
